<svg width="30" height="30" viewBox="0 0 30 30" xmlns="http://www.w3.org/2000/svg">
    <defs>
        <filter x="-1.1%" y="-9.4%" width="102.2%" height="118.8%" filterUnits="objectBoundingBox" id="818kgvppia">
            <feMorphology radius=".5" operator="dilate" in="SourceAlpha" result="shadowSpreadOuter1"/>
            <feOffset dy="1" in="shadowSpreadOuter1" result="shadowOffsetOuter1"/>
            <feMorphology radius="1" in="SourceAlpha" result="shadowInner"/>
            <feOffset dy="1" in="shadowInner" result="shadowInner"/>
            <feComposite in="shadowOffsetOuter1" in2="shadowInner" operator="out" result="shadowOffsetOuter1"/>
            <feGaussianBlur stdDeviation=".5" in="shadowOffsetOuter1" result="shadowBlurOuter1"/>
            <feColorMatrix values="0 0 0 0 0 0 0 0 0 0 0 0 0 0 0 0 0 0 0.1 0" in="shadowBlurOuter1" result="shadowMatrixOuter1"/>
            <feMerge>
                <feMergeNode in="shadowMatrixOuter1"/>
                <feMergeNode in="SourceGraphic"/>
            </feMerge>
        </filter>
    </defs>
    <g transform="translate(-17 -9)" filter="url(#818kgvppia)" fill="#FFF" fill-rule="nonzero">
        <path d="M43.744 16.636a9.74 9.74 0 0 1-2.798.767 4.886 4.886 0 0 0 2.142-2.695 9.756 9.756 0 0 1-3.093 1.182 4.872 4.872 0 0 0-8.301 4.443 13.83 13.83 0 0 1-10.041-5.09c-.42.72-.66 1.557-.66 2.45 0 1.69.86 3.18 2.168 4.054a4.852 4.852 0 0 1-2.207-.609v.061c0 2.36 1.679 4.33 3.907 4.777a4.878 4.878 0 0 1-2.2.083 4.876 4.876 0 0 0 4.55 3.383 9.774 9.774 0 0 1-6.049 2.086A9.91 9.91 0 0 1 20 31.46a13.788 13.788 0 0 0 7.467 2.188c8.96 0 13.86-7.423 13.86-13.86 0-.211-.005-.421-.014-.63a9.9 9.9 0 0 0 2.43-2.522"/>
    </g>
</svg>
