<svg width="169" height="30" viewBox="0 0 169 30" xmlns="http://www.w3.org/2000/svg">
    <g fill="none" fill-rule="evenodd">
        <path d="M7.638 1.57c-.8 4.906 1.555 8.672 7.065 11.296 5.388 2.566 7.762 6.64 7.123 12.223l-.048.383h-7.373c.242-1.842-.03-3.145-.815-3.91-2.91-2.835-5.779-2.898-8.712-6.041C1.128 11.503-.44 7.008.18 2.037l.065-.467h7.393z" fill="#FF4C4C" fill-rule="nonzero"/>
        <path d="M13.575 14.552c.047 1.124-.022 2.036-.227 2.734-.157.535-.385.934-.742 1.145-.357.21-.815.217-1.358.095-.709-.158-1.54-.538-2.5-1.123-1.484-.874-2.607-1.71-3.367-2.525C1.883 11.13.38 6.947.9 2.32H6.71c-.169 1.774.093 3.414.775 4.92.78 1.726 2.12 3.283 4.035 4.657.327.258 2.009 1.537 2.055 2.655z" stroke="#FF4C4C" stroke-width="1.5" fill="#2E53C2"/>
        <path fill="#FFB500" fill-rule="nonzero" d="M22.28 1.186v8.93h-8.93v-8.93z"/>
        <path d="M104.86 6.102c4.608 0 7.908 3.518 7.908 8.468 0 5.012-3.144 8.53-7.72 8.53-3.288 0-4.91-1.9-5.49-2.923l-.052-.097h-.187v9.776h-2.46V6.506h2.367V9.06h.186c.405-.591 1.93-2.957 5.448-2.957zm-66.245 0c2.802 0 5.51 1.619 5.884 4.545l-2.148.623c-.218-1.9-1.775-3.051-3.892-3.051-2.023 0-3.33.996-3.33 2.397 0 4.11 9.713.685 9.713 7.378 0 3.051-2.522 5.106-6.29 5.106-3.642 0-5.914-1.992-6.288-4.888l2.242-.56c.186 2.18 1.712 3.3 4.171 3.3 2.429 0 3.767-1.183 3.767-2.833 0-2.053-1.974-2.474-4.14-2.909l-.467-.094c-2.496-.509-5.075-1.19-5.075-4.5 0-2.74 2.46-4.514 5.853-4.514zm28.061 0c4.888 0 8.437 3.642 8.437 8.499 0 4.857-3.611 8.499-8.468 8.499-4.857 0-8.437-3.58-8.437-8.5 0-4.887 3.643-8.498 8.468-8.498zm64.907 0c4.795 0 7.583 3.296 7.686 8.008l.003.273v.903H126.26c.031 3.611 2.148 5.635 5.51 5.635 2.197 0 4.22-1.222 4.83-3.328l.058-.221 2.397.56c-.902 3.02-3.58 5.168-7.316 5.168-4.918 0-8-3.456-8-8.437 0-5.168 3.549-8.561 7.845-8.561zm15.634 0c2.801 0 5.51 1.619 5.884 4.545l-2.149.623c-.217-1.9-1.774-3.051-3.891-3.051-2.024 0-3.331.996-3.331 2.397 0 4.11 9.713.685 9.713 7.378 0 3.051-2.522 5.106-6.289 5.106-3.642 0-5.915-1.992-6.288-4.888l2.241-.56c.187 2.18 1.712 3.3 4.172 3.3 2.428 0 3.767-1.183 3.767-2.833 0-2.091-2.049-2.489-4.262-2.933l-.289-.058a58.441 58.441 0 0 1-.189-.039l-.377-.08c-2.325-.507-4.565-1.308-4.565-4.393 0-2.74 2.46-4.514 5.853-4.514zm14.637 0c2.802 0 5.51 1.619 5.884 4.545l-2.148.623c-.218-1.9-1.775-3.051-3.891-3.051-2.024 0-3.332.996-3.332 2.397 0 4.11 9.714.685 9.714 7.378 0 3.051-2.522 5.106-6.29 5.106-3.642 0-5.914-1.992-6.288-4.888l2.242-.56c.187 2.18 1.712 3.3 4.171 3.3 2.429 0 3.767-1.183 3.767-2.833 0-2.2-2.266-2.526-4.606-3.003l-.469-.098c-2.34-.506-4.607-1.299-4.607-4.402 0-2.74 2.46-4.514 5.853-4.514zM51.79 1.806v4.7h4.982v2.086h-4.982v9.465c0 1.743.716 2.49 2.429 2.49h2.335v2.148h-2.304c-2.958 0-4.919-1.338-4.919-4.607V8.592h-3.05V6.507h3.206V1.806h2.303zm33.945 4.296v2.46h-1.463c-2.957 0-4.171 2.396-4.171 5.479v8.654h-2.46V6.507h2.428v2.708h.187c.467-1.37 2.055-3.113 4.42-3.113h1.06zm6.793.405v16.188h-2.46V8.592h-3.05V6.507h5.51zm30.863-.405v2.46h-1.464c-2.957 0-4.171 2.396-4.171 5.479v8.654h-2.46V6.507h2.429v2.708h.186c.467-1.37 2.055-3.113 4.421-3.113h1.059zm-62.458 6.964c-.943 3.518.756 6.68 4.094 7.575 3.368.903 6.428-1.017 7.363-4.505.927-3.458-.756-6.681-4.124-7.583-3.368-.903-6.414 1.085-7.333 4.513zm38.602.547c-.692 3.925 1.36 6.626 4.365 7.156 3.127.551 5.845-1.593 6.488-5.242.66-3.74-1.31-6.553-4.376-7.094-3.311-.584-5.888 1.839-6.477 5.18zm27.235-1.026-.041.242 10.39.91c.137-3.364-2.048-5.18-4.715-5.413-2.565-.225-5.084 1.39-5.634 4.261zM91.28 0c1.059 0 1.806.778 1.806 1.775 0 1.027-.747 1.805-1.806 1.805-1.027 0-1.774-.778-1.774-1.805C89.507.778 90.254 0 91.28 0z" fill="#000" fill-rule="nonzero"/>
    </g>
</svg>
